<svg width="153" height="29" viewBox="0 0 153 29" fill="none" xmlns="http://www.w3.org/2000/svg">
<path d="M85.8133 24.5771H84.6075V10.3037H85.8133V24.5771ZM90.5385 13.9701L90.5777 15.7837C90.9763 15.1301 91.473 14.6335 92.0678 14.2936C92.6625 13.9472 93.3193 13.774 94.0382 13.774C95.1754 13.774 96.0217 14.0943 96.5772 14.7348C97.1327 15.3752 97.4138 16.3359 97.4203 17.6169V24.5771H96.2537V17.6071C96.2472 16.6594 96.0446 15.9536 95.6459 15.4896C95.2538 15.0256 94.6231 14.7936 93.7539 14.7936C93.0285 14.7936 92.3847 15.0223 91.8227 15.4798C91.2672 15.9307 90.8554 16.5418 90.5875 17.313V24.5771H89.4209V13.9701H90.5385ZM106.812 21.8813C106.812 21.2996 106.576 20.8323 106.106 20.4794C105.642 20.1265 104.939 19.852 103.998 19.6559C103.057 19.4534 102.325 19.2246 101.802 18.9697C101.286 18.7083 100.9 18.3913 100.646 18.0188C100.397 17.6463 100.273 17.1953 100.273 16.666C100.273 15.8294 100.623 15.1399 101.322 14.5975C102.021 14.0485 102.917 13.774 104.008 13.774C105.191 13.774 106.139 14.0681 106.851 14.6563C107.57 15.238 107.929 15.9994 107.929 16.9405H106.753C106.753 16.3196 106.492 15.8033 105.969 15.3916C105.452 14.9798 104.799 14.774 104.008 14.774C103.237 14.774 102.616 14.9472 102.145 15.2935C101.681 15.6334 101.449 16.0778 101.449 16.6268C101.449 17.1561 101.642 17.5679 102.028 17.862C102.42 18.1495 103.129 18.4142 104.155 18.656C105.188 18.8978 105.959 19.156 106.469 19.4305C106.985 19.705 107.367 20.035 107.616 20.4206C107.864 20.8062 107.988 21.2735 107.988 21.8225C107.988 22.7178 107.625 23.4334 106.9 23.9694C106.181 24.5053 105.24 24.7732 104.077 24.7732C102.841 24.7732 101.838 24.4758 101.067 23.8811C100.302 23.2799 99.9201 22.5217 99.9201 21.6068H101.096C101.142 22.293 101.43 22.8289 101.959 23.2145C102.495 23.5936 103.201 23.7831 104.077 23.7831C104.894 23.7831 105.554 23.6034 106.057 23.2439C106.56 22.8845 106.812 22.4303 106.812 21.8813ZM112.458 11.2546V13.9701H114.654V14.9308H112.458V21.9989C112.458 22.5871 112.563 23.025 112.772 23.3125C112.988 23.6001 113.344 23.7439 113.841 23.7439C114.037 23.7439 114.354 23.7112 114.792 23.6458L114.841 24.6066C114.533 24.7177 114.115 24.7732 113.586 24.7732C112.782 24.7732 112.197 24.5412 111.831 24.0772C111.465 23.6066 111.282 22.9171 111.282 22.0087V14.9308H109.331V13.9701H111.282V11.2546H112.458ZM123.781 24.5771C123.663 24.2438 123.588 23.7504 123.556 23.0969C123.144 23.6328 122.618 24.0478 121.977 24.3419C121.343 24.6294 120.67 24.7732 119.958 24.7732C118.938 24.7732 118.112 24.4889 117.478 23.9203C116.85 23.3518 116.537 22.6329 116.537 21.7636C116.537 20.731 116.965 19.9141 117.821 19.3128C118.683 18.7116 119.883 18.4109 121.418 18.4109H123.546V17.2052C123.546 16.447 123.311 15.8523 122.84 15.421C122.376 14.9831 121.696 14.7642 120.801 14.7642C119.984 14.7642 119.308 14.9733 118.772 15.3916C118.236 15.8098 117.968 16.3131 117.968 16.9013L116.791 16.8915C116.791 16.0484 117.184 15.3197 117.968 14.7053C118.752 14.0845 119.716 13.774 120.86 13.774C122.043 13.774 122.974 14.0714 123.654 14.6661C124.34 15.2543 124.693 16.0778 124.712 17.1365V22.1558C124.712 23.1818 124.82 23.9497 125.036 24.4595V24.5771H123.781ZM120.095 23.7341C120.879 23.7341 121.579 23.5445 122.193 23.1655C122.814 22.7864 123.265 22.2799 123.546 21.646V19.3128H121.448C120.278 19.3259 119.363 19.5416 118.703 19.9598C118.043 20.3716 117.713 20.9402 117.713 21.6656C117.713 22.2603 117.932 22.7538 118.37 23.1459C118.814 23.538 119.389 23.7341 120.095 23.7341ZM129.163 24.5771H127.987V9.51946H129.163V24.5771ZM133.672 24.5771H132.496V9.51946H133.672V24.5771ZM140.976 24.7732C140.074 24.7732 139.257 24.551 138.525 24.1066C137.8 23.6622 137.234 23.0446 136.829 22.2538C136.424 21.4565 136.221 20.5644 136.221 19.5775V19.156C136.221 18.1365 136.417 17.2182 136.809 16.4013C137.208 15.5844 137.76 14.9439 138.466 14.4799C139.172 14.0093 139.937 13.774 140.76 13.774C142.048 13.774 143.067 14.2152 143.819 15.0975C144.577 15.9732 144.956 17.1725 144.956 18.6952V19.3521H137.388V19.5775C137.388 20.78 137.731 21.7832 138.417 22.5871C139.11 23.3844 139.979 23.7831 141.025 23.7831C141.652 23.7831 142.205 23.6687 142.682 23.44C143.165 23.2112 143.603 22.8453 143.995 22.342L144.73 22.9008C143.868 24.1491 142.616 24.7732 140.976 24.7732ZM140.76 14.774C139.878 14.774 139.133 15.0975 138.525 15.7445C137.924 16.3915 137.558 17.2607 137.427 18.3521H143.789V18.2247C143.757 17.2052 143.466 16.3752 142.917 15.7347C142.368 15.0942 141.649 14.774 140.76 14.774ZM152.142 14.97C151.893 14.9243 151.629 14.9014 151.348 14.9014C150.616 14.9014 149.995 15.1073 149.485 15.519C148.982 15.9242 148.622 16.5157 148.407 17.2934V24.5771H147.24V13.9701H148.387L148.407 15.6562C149.028 14.4014 150.024 13.774 151.397 13.774C151.723 13.774 151.982 13.8165 152.171 13.9015L152.142 14.97Z" fill="#696F79"/>
<g clip-path="url(#clip0)">
<path fill-rule="evenodd" clip-rule="evenodd" d="M7.92828 0.137855C8.70342 -0.42204 9.185 0.862576 9.66721 1.5052C11.5891 4.07123 14.2144 6.18575 17.26 7.68906C18.7129 8.40673 22.2907 10.0499 22.4187 7.09454C22.4362 6.68215 22.2988 5.83942 22.1289 5.25131C21.9696 4.69975 21.6455 3.99491 22.1289 3.76531C22.6786 3.50236 23.2863 4.53941 23.6942 5.1923C24.8129 6.98807 25.7348 9.60476 25.7223 12.3863C25.7155 13.946 25.1933 14.8863 23.8097 15.062C22.7017 15.2031 21.3925 14.8414 20.4474 14.5271C15.7378 12.9622 12.1763 9.74586 9.84147 5.78683C9.12067 4.56571 8.54415 3.25993 8.10254 1.68414C7.972 1.22045 7.64345 0.661193 7.92828 0.137855Z" fill="#696F79"/>
<path fill-rule="evenodd" clip-rule="evenodd" d="M25.2007 15.8351C24.3375 19.0585 22.7448 21.2352 20.39 22.9707C18.2606 24.5401 15.0414 25.8959 11.2318 25.4078C6.27427 24.7735 2.83451 21.797 1.03125 17.738C0.731432 17.0658 0.502823 16.4328 0.277337 15.4785C0.158035 14.9725 -0.00124193 14.3433 7.30309e-06 13.8629C0.000631919 13.5128 0.0868288 13.2428 0.335426 13.16C0.812632 12.9997 1.33294 13.9213 1.61089 14.2888C3.7071 17.0658 6.63217 19.2169 10.7103 20.1764C11.5017 20.3624 12.328 20.3213 12.333 19.5812C12.3374 18.9398 11.0095 18.353 10.6528 18.0952C8.83457 16.7824 7.29864 15.1989 5.95759 13.3383C4.78331 11.7093 3.61403 9.45177 2.82827 6.91653C2.65525 6.35984 1.83513 4.31907 2.76955 4.35948C3.1868 4.37872 3.46225 4.85909 3.81266 5.37088C6.76647 9.67431 10.9845 13.094 16.1007 15.1219C18.6541 16.134 22.6017 17.3288 25.2007 15.8357" fill="#696F79"/>
<path fill-rule="evenodd" clip-rule="evenodd" d="M41.5453 9.354C41.559 12.2728 41.6752 15.0876 41.6608 18.0353C41.9494 17.7595 42.0375 17.3182 42.183 16.9649C43.1892 14.5258 44.2804 11.8469 45.3123 9.354H54.819C53.7852 14.7952 52.6584 20.1402 51.5728 25.5268H45.9507C46.6815 21.639 47.4822 17.823 48.2692 13.9922C48.06 14.1461 47.9682 14.4187 47.8632 14.6464C46.2186 18.2059 44.5091 21.9481 42.8207 25.5268H38.0099C37.7632 21.6974 37.5152 17.8692 37.3141 13.9922C37.1367 14.1378 37.123 14.4476 37.0824 14.6464C36.3528 18.2123 35.6589 21.9815 34.88 25.5268H29.2578C29.7419 23.0102 30.3459 20.0728 30.938 17.2028C31.5014 14.4771 31.7188 11.5109 33.8362 10.1865C35.6495 9.05257 38.6433 9.43802 41.5453 9.354Z" fill="#696F79"/>
<mask id="mask0" mask-type="alpha" maskUnits="userSpaceOnUse" x="56" y="9" width="23" height="17">
<path d="M56.167 9.354H78.026V25.555H56.167V9.354Z" fill="white"/>
</mask>
<g mask="url(#mask0)">
<path fill-rule="evenodd" clip-rule="evenodd" d="M56.2669 9.354C58.6267 9.50087 61.0664 9.02371 62.295 10.2455C63.305 11.2498 63.3413 13.6061 63.5705 15.3596C63.8272 17.3247 64.0814 19.3436 64.2657 21.0676C64.4768 21.0977 64.6417 20.7122 64.7872 20.473C66.9884 16.8616 69.3182 13.0206 71.5687 9.41365H77.9454C78.1534 9.43289 77.9029 9.70033 77.8286 9.82988C77.2539 10.8304 76.5219 11.9111 75.8579 12.9808C74.3682 15.3814 72.866 17.7512 71.337 20.2344C69.8048 22.7248 68.4587 25.0606 64.8453 25.4678C62.6817 25.7115 60.0252 25.496 58.934 24.1595C58.3343 23.4251 58.017 22.1764 57.8321 20.8886C57.2937 17.1374 56.7185 13.0719 56.2094 9.53294C56.1444 9.447 56.1469 9.38735 56.2675 9.354" fill="#696F79"/>
</g>
</g>
<defs>
<clipPath id="clip0">
<rect width="78.0769" height="25.6538" fill="white"/>
</clipPath>
</defs>
</svg>
